<?xml version="1.0" standalone="no"?>
<!DOCTYPE svg PUBLIC "-//W3C//DTD SVG 20010904//EN"
 "http://www.w3.org/TR/2001/REC-SVG-20010904/DTD/svg10.dtd">
<svg version="1.0" xmlns="http://www.w3.org/2000/svg"
 width="1216.000000pt" height="1216.000000pt" viewBox="0 0 1216.000000 1216.000000"
 preserveAspectRatio="xMidYMid meet">
<metadata>
Created by potrace 1.14, written by Peter Selinger 2001-2017
</metadata>
<g transform="translate(0.000000,1216.000000) scale(0.100000,-0.100000)"
fill="#000000" stroke="none">
<path d="M8839 9116 c-2 -2 -40 -6 -84 -10 -44 -4 -89 -9 -100 -11 -11 -2 -40
-7 -65 -10 -72 -10 -83 -12 -115 -19 -42 -9 -76 -16 -105 -22 -98 -19 -256
-69 -405 -127 -123 -48 -403 -184 -435 -212 -8 -7 -25 -16 -37 -19 -13 -4 -23
-12 -23 -17 0 -5 -5 -9 -10 -9 -6 0 -51 -28 -101 -62 -367 -253 -696 -605
-920 -988 -80 -136 -232 -459 -245 -520 0 -3 -3 -12 -6 -20 -21 -55 -39 -110
-43 -126 -3 -11 -18 -72 -34 -136 -16 -64 -32 -132 -35 -150 -3 -18 -8 -44
-11 -58 -11 -54 -23 -160 -32 -275 -12 -166 -7 -456 12 -605 2 -19 6 -51 8
-70 3 -19 7 -46 10 -60 4 -14 9 -41 12 -60 4 -29 34 -162 49 -221 17 -66 30
-108 42 -136 8 -17 14 -36 14 -43 0 -6 9 -32 19 -58 11 -26 33 -81 49 -122 17
-41 38 -88 46 -105 9 -16 16 -35 16 -41 0 -6 7 -17 15 -24 8 -6 14 -15 13 -18
-1 -4 8 -27 21 -52 215 -414 512 -771 861 -1034 41 -31 80 -60 85 -64 23 -18
155 -102 225 -143 119 -71 319 -166 455 -219 33 -12 69 -26 80 -31 11 -4 54
-18 95 -29 41 -12 82 -24 90 -27 8 -3 21 -7 29 -9 50 -10 118 -26 131 -31 8
-4 22 -7 30 -8 14 -1 134 -21 190 -31 27 -5 102 -12 190 -19 30 -2 57 -5 60
-5 16 -4 346 -1 400 4 36 3 86 8 111 10 42 4 216 32 264 43 11 2 31 6 45 9
111 22 310 83 435 134 160 64 380 172 396 193 3 5 10 9 15 9 17 1 54 21 54 30
0 4 5 8 10 8 16 0 287 184 310 209 3 3 30 26 60 51 139 113 289 266 419 425
91 114 88 109 136 180 22 33 46 66 52 73 7 7 13 19 13 26 0 7 8 21 18 32 34
37 153 260 212 400 23 54 46 107 51 116 23 44 111 332 123 403 3 17 10 48 15
70 9 39 15 72 26 153 3 20 7 46 10 57 8 39 19 202 19 297 1 54 5 94 10 90 5
-3 6 0 2 6 -3 6 -8 62 -11 124 -5 131 -19 293 -25 293 -1 0 -3 18 -5 40 -6 59
-19 129 -29 163 -3 9 -8 29 -11 45 -12 65 -17 83 -51 195 -36 121 -119 340
-135 357 -5 5 -9 17 -9 26 0 9 -7 22 -15 29 -9 7 -13 15 -11 18 8 8 -113 224
-203 362 -242 372 -610 724 -1002 958 -48 29 -91 52 -97 52 -6 0 -12 3 -14 8
-3 6 -112 63 -148 76 -8 3 -22 10 -30 14 -14 9 -35 18 -120 55 -50 22 -189 71
-230 82 -26 7 -100 29 -120 36 -14 5 -34 11 -45 13 -11 3 -54 11 -95 20 -100
20 -129 26 -170 31 -19 3 -53 8 -75 11 -22 4 -58 8 -80 10 -53 5 -512 14 -516
10z m338 -1531 c95 -9 233 -41 304 -69 32 -14 59 -23 59 -21 0 4 163 -78 195
-98 11 -6 39 -24 63 -39 24 -16 47 -28 52 -28 4 0 10 -3 12 -8 2 -4 23 -23 48
-42 324 -251 529 -619 577 -1035 15 -129 6 -322 -21 -450 -21 -103 -24 -116
-51 -203 -3 -7 -5 -14 -5 -17 -5 -31 -112 -245 -158 -315 -130 -200 -358 -413
-547 -513 -268 -141 -491 -187 -785 -164 -109 9 -268 44 -345 76 -160 68 -299
152 -426 257 -73 61 -210 203 -218 227 -2 7 -7 14 -11 17 -13 10 -100 140 -93
140 3 0 -1 8 -9 18 -21 23 -100 192 -126 267 -27 77 -58 206 -67 270 -3 28 -8
64 -10 80 -5 38 -6 272 -1 305 2 14 7 45 11 70 11 79 14 94 35 165 11 39 22
77 24 85 24 91 109 264 194 392 79 120 266 310 367 374 17 10 32 22 35 25 8
12 230 126 290 149 97 39 216 71 276 75 17 1 35 4 40 6 5 3 38 6 74 8 36 2 66
4 67 4 3 3 83 -1 150 -8z"/>
<path d="M71 9002 c-45 -16 -76 -84 -67 -147 6 -34 22 -63 69 -123 34 -44 73
-94 87 -112 45 -60 151 -195 171 -218 10 -12 19 -27 19 -32 0 -6 4 -10 8 -10
5 0 24 -21 42 -47 18 -27 40 -55 47 -63 8 -8 68 -85 134 -170 66 -85 126 -162
133 -171 7 -9 37 -47 67 -85 29 -38 94 -121 144 -185 49 -64 101 -131 115
-149 14 -18 30 -38 35 -44 6 -6 30 -38 55 -71 25 -33 47 -62 50 -65 3 -3 30
-36 60 -75 30 -38 58 -71 62 -73 5 -2 8 -8 8 -13 0 -8 17 -31 45 -63 6 -6 24
-29 40 -51 17 -22 32 -42 35 -45 3 -3 21 -25 40 -50 19 -25 40 -52 47 -60 7
-8 69 -89 140 -180 70 -91 132 -170 138 -176 5 -6 17 -22 25 -34 8 -12 20 -28
25 -34 6 -6 42 -51 80 -101 38 -49 72 -92 75 -95 15 -12 66 -98 76 -126 17
-47 10 -143 -14 -189 -11 -22 -58 -88 -104 -146 -45 -58 -92 -118 -103 -133
-11 -16 -25 -33 -30 -40 -6 -6 -50 -63 -99 -126 -50 -63 -93 -119 -98 -125 -5
-5 -45 -57 -89 -115 -44 -58 -90 -117 -102 -132 -12 -15 -31 -39 -42 -54 -17
-23 -97 -126 -210 -269 -13 -16 -37 -48 -54 -70 -17 -22 -34 -44 -39 -50 -4
-5 -30 -39 -57 -75 -28 -35 -56 -71 -62 -80 -7 -8 -65 -82 -129 -165 -63 -82
-123 -159 -132 -170 -9 -11 -46 -59 -82 -105 -35 -47 -69 -90 -75 -96 -5 -7
-19 -24 -30 -40 -11 -15 -24 -32 -30 -38 -5 -6 -39 -49 -75 -96 -73 -95 -89
-116 -108 -135 -6 -8 -12 -18 -12 -23 0 -6 -4 -12 -8 -14 -4 -1 -48 -55 -97
-118 -49 -63 -95 -121 -102 -128 -7 -7 -13 -19 -13 -27 0 -7 -5 -15 -11 -17
-11 -4 -15 -77 -5 -118 8 -36 61 -80 94 -79 15 0 76 0 135 -1 60 -1 111 0 113
3 3 3 21 1 40 -3 19 -5 37 -4 40 1 3 5 10 7 15 4 11 -7 218 -9 225 -2 3 3 21
1 40 -3 19 -5 37 -4 40 1 3 5 10 7 15 4 11 -7 218 -9 225 -2 3 3 21 1 40 -3
19 -5 37 -4 40 1 3 5 9 7 14 4 12 -8 169 -9 176 -2 3 3 17 2 31 -2 14 -4 49
-4 79 -1 29 3 63 2 75 -2 12 -5 27 -4 34 2 6 5 14 7 17 4 8 -7 120 -6 178 1
94 12 222 93 275 174 13 20 41 61 63 91 21 30 71 105 112 165 40 61 76 112 79
115 3 3 33 46 66 95 33 50 63 92 68 93 4 2 7 10 7 17 0 7 3 15 8 17 7 3 59 78
187 268 27 41 52 77 55 80 3 3 23 32 45 65 22 33 42 62 45 65 3 3 27 39 55 80
27 41 53 77 57 78 4 2 8 8 8 12 0 5 25 45 55 88 67 95 119 128 176 112 44 -13
77 -46 147 -150 121 -177 242 -355 397 -580 33 -47 63 -86 67 -88 4 -2 8 -8 8
-14 0 -6 20 -38 44 -72 24 -33 78 -112 120 -175 43 -63 83 -119 89 -126 7 -6
21 -28 32 -48 11 -20 23 -37 27 -37 5 0 8 -7 8 -15 0 -8 3 -15 8 -15 4 0 12
-8 17 -19 19 -36 93 -136 121 -164 32 -32 140 -95 176 -103 66 -14 204 -21
214 -12 3 3 21 2 40 -2 19 -5 37 -4 40 1 3 5 10 7 15 4 11 -7 218 -9 225 -2 3
3 21 1 40 -3 19 -5 37 -4 40 1 3 5 9 7 14 4 12 -8 169 -9 176 -2 3 3 17 2 31
-2 14 -4 49 -4 79 -1 29 3 63 2 75 -2 12 -5 26 -5 31 0 5 5 28 6 51 3 23 -3
62 -4 87 -1 25 3 56 2 70 -3 14 -5 26 -4 28 1 1 4 24 6 50 3 26 -3 67 -4 92
-1 25 3 56 2 70 -3 14 -4 26 -4 27 0 2 5 28 6 58 3 31 -3 58 -4 61 -1 2 3 14
6 26 8 12 2 30 11 39 19 25 23 48 97 42 136 -4 28 -35 93 -52 108 -20 18 -91
110 -91 118 0 6 -4 12 -8 14 -5 2 -25 24 -44 49 -19 26 -40 53 -47 60 -6 8
-25 32 -42 54 -16 22 -35 47 -42 55 -7 8 -28 35 -47 60 -45 58 -50 64 -104
132 -25 31 -46 61 -46 66 0 6 -4 12 -9 14 -4 2 -59 68 -121 148 -62 80 -123
159 -137 175 -13 17 -32 41 -41 54 -9 13 -25 32 -34 43 -10 10 -18 20 -18 23
0 3 -35 49 -78 102 -42 54 -96 123 -119 153 -23 30 -51 65 -62 77 -12 12 -21
25 -21 28 0 3 -28 41 -63 84 -34 43 -72 91 -84 107 -28 36 -424 547 -461 593
-15 19 -62 80 -105 135 -42 56 -85 110 -93 120 -38 45 -53 99 -50 179 2 69 6
82 37 125 45 64 214 282 239 308 11 12 20 26 20 30 0 5 16 26 35 48 19 21 35
41 35 45 0 3 12 20 28 36 15 17 46 55 69 86 23 31 47 62 55 70 7 8 18 22 23
31 10 16 202 265 260 337 17 21 41 53 55 71 25 33 190 247 236 305 13 17 82
107 154 200 72 94 136 177 143 185 6 8 73 94 146 190 74 96 153 198 175 226
23 28 52 66 66 84 14 18 43 56 66 84 22 28 51 67 64 86 13 19 32 42 42 51 10
9 18 21 18 27 0 6 3 12 8 14 14 6 71 85 83 114 11 27 12 40 10 97 -1 27 -25
58 -57 75 -26 14 -1613 14 -1658 0 -51 -16 -160 -71 -169 -85 -4 -7 -15 -13
-22 -13 -8 0 -15 -4 -15 -9 0 -5 -6 -16 -12 -23 -7 -7 -31 -40 -53 -73 -22
-33 -44 -64 -48 -70 -5 -5 -21 -29 -35 -51 -15 -23 -76 -115 -137 -203 -60
-89 -115 -169 -120 -179 -23 -39 -131 -198 -142 -210 -6 -6 -15 -21 -18 -32
-3 -11 -10 -20 -14 -20 -5 0 -14 -13 -21 -30 -7 -16 -16 -30 -21 -30 -4 0 -11
-9 -14 -20 -3 -11 -12 -26 -18 -32 -7 -7 -52 -74 -102 -148 -49 -74 -95 -140
-101 -147 -6 -6 -42 -57 -80 -113 -97 -145 -130 -179 -181 -186 -27 -4 -51 0
-70 9 -31 16 -83 71 -83 87 0 5 -3 10 -8 10 -4 0 -12 9 -17 20 -11 22 -198
296 -257 377 -21 29 -38 56 -38 62 0 5 -3 11 -8 13 -4 2 -52 71 -107 153 -55
83 -103 152 -106 155 -7 6 -229 332 -244 358 -5 9 -13 19 -16 22 -3 3 -34 48
-69 100 -35 52 -67 97 -72 98 -4 2 -8 10 -8 17 0 20 -110 127 -156 151 -98 53
-81 53 -941 52 -439 0 -804 -3 -812 -6z"/>
</g>
</svg>
